<svg xmlns="http://www.w3.org/2000/svg" width="512" height="512"><g class="layer"><g transform="translate(179 300)"><rect width="260" height="100" x="20" y="60" fill="#EAF2FF" rx="16"/><rect width="260" height="100" x="10" y="30" fill="#FFF" stroke="#E1E9F8" stroke-width="2" rx="16"/><rect width="260" height="100" fill="#FFF" stroke="#D7E6FB" stroke-width="2" rx="16"/><g fill="#9AAFD6"><rect width="180" height="8" x="40" y="20" rx="4"/><rect width="140" height="8" x="40" y="36" rx="4"/><rect width="200" height="8" x="40" y="52" rx="4"/></g><circle cx="28" cy="16" r="10" fill="#CFE4FF"/></g><g transform="translate(53 53)"><rect width="160" height="200" fill="#EAF2FF" stroke="#CBD9F0" stroke-width="2" rx="16"/><path fill="#DCE7FA" d="M95.67.33v64h64"/><g fill="#9AAFD6"><rect width="16" height="12" x="72" y="36" rx="2"/><rect width="16" height="12" x="72" y="60" rx="2"/><rect width="16" height="12" x="72" y="84" rx="2"/></g><text x="29" y="180" fill="#1E40AF" font-family="Inter, sans-serif" font-size="28" font-weight="600">Archive</text></g><path fill="#aec6f2" stroke="#9aafd6" stroke-linejoin="round" stroke-width="5" d="M321.58 237.73 348.29 287 375 237.73h-16.44c0-69.8-59.59-92.39-133.56-86.23 78.08 8.21 113.01 22.58 113.01 86.23h-16.44z"/></g></svg>